<svg xmlns="http://www.w3.org/2000/svg" width="12" height="10.258" viewBox="0 0 12 10.258">
  <path id="Path_120" data-name="Path 120" d="M10.479,5.575c-.078-.057-.166-.03-.248-.03q-4.811,0-9.622,0a.771.771,0,0,1-.4-.068A.385.385,0,0,1,0,5.064a.352.352,0,0,1,.3-.342,2.906,2.906,0,0,1,.406-.029l9.493,0c.082,0,.2.044.239-.033.048-.1-.078-.153-.139-.214q-1.8-1.815-3.6-3.625c-.05-.051-.1-.1-.147-.156a.369.369,0,0,1,0-.524A.412.412,0,0,1,7.1.075,1.181,1.181,0,0,1,7.26.22q2.255,2.254,4.51,4.509c.31.31.307.486,0,.795L7.35,9.94c-.061.061-.119.125-.184.18a.392.392,0,0,1-.591.008.385.385,0,0,1,.016-.59c.34-.358.693-.7,1.041-1.054q1.362-1.371,2.723-2.741c.048-.048.117-.084.124-.168" transform="translate(0 0)" fill="#132030"/>
</svg>
