<svg id="Group_108" data-name="Group 108" xmlns="http://www.w3.org/2000/svg" xmlns:xlink="http://www.w3.org/1999/xlink" width="136.009" height="35.79" viewBox="0 0 136.009 35.79">
  <defs>
    <clipPath id="clip-path">
      <rect id="Rectangle_77" data-name="Rectangle 77" width="136.009" height="35.79" fill="#1e73be"/>
    </clipPath>
  </defs>
  <g id="Group_108-2" data-name="Group 108" clip-path="url(#clip-path)">
    <path id="Path_203" data-name="Path 203" d="M853.12,9.113c-.3,1.013-.6,2.011-.889,3.01q-2.054,7-4.1,13.993a.443.443,0,0,1-.524.39c-.639-.028-1.281-.026-1.92,0-.3.012-.409-.093-.492-.375q-1.93-6.633-3.884-13.259c-.646-2.2-1.278-4.41-1.941-6.607-.118-.391-.019-.449.342-.434.611.025,1.225.031,1.835,0,.353-.019.488.1.579.436q2.136,7.856,4.3,15.7c.086.313.177.624.3,1.042.376-1.262.722-2.423,1.067-3.585q1.952-6.582,3.9-13.166c.1-.33.227-.451.58-.432.624.034,1.252.028,1.877,0a.471.471,0,0,1,.563.4q2.387,8.162,4.8,16.317c.032.108.069.215.113.353a1.885,1.885,0,0,0,.286-.787q2.233-7.962,4.446-15.929c.074-.267.178-.367.46-.357.611.021,1.224.026,1.835,0,.365-.016.386.1.292.412q-2.041,6.888-4.06,13.783c-.592,2.012-1.188,4.023-1.767,6.039-.091.318-.209.467-.576.445-.624-.039-1.252-.024-1.877,0-.276.009-.386-.079-.465-.351-.92-3.186-1.858-6.366-2.788-9.549q-1.043-3.57-2.085-7.141c-.033-.11-.018-.258-.19-.348" transform="translate(-767.596 -5.327)" fill="#f29401"/>
    <path id="Path_204" data-name="Path 204" d="M9.737,15.593a6.047,6.047,0,0,1,2.745,1.267,5.027,5.027,0,0,1,1.76,4.24c-.11,2.854-2.106,4.384-4.505,5.009a13.61,13.61,0,0,1-3.291.414c-2.02.022-4.04,0-6.06.013-.288,0-.387-.06-.387-.37Q.014,16.2,0,6.233c0-.258.04-.376.341-.372,2.246.034,4.494-.052,6.74.05a7.745,7.745,0,0,1,4.154,1.225A4.474,4.474,0,0,1,13.149,11.7a4.454,4.454,0,0,1-2.829,3.657c-.19.087-.389.156-.584.234M2.484,20.57c0,1.094.01,2.187-.007,3.281,0,.292.068.387.374.383,1.337-.017,2.676.017,4.013-.015A6.672,6.672,0,0,0,9.9,23.486,3.359,3.359,0,0,0,11.067,18.7,3.931,3.931,0,0,0,8,17.007c-1.757-.207-3.525-.05-5.288-.1-.289-.008-.231.178-.231.338q0,1.662,0,3.323m0-9.173c0,.937.011,1.875-.007,2.812-.006.3.042.418.385.411,1.138-.025,2.276,0,3.415-.013a7.616,7.616,0,0,0,1.981-.258,2.888,2.888,0,0,0,2.255-2.532c.132-1.6-.347-2.566-1.568-3.141A4.318,4.318,0,0,0,7.684,8.3,46.871,46.871,0,0,0,2.74,8.18c-.26-.008-.259.135-.258.321,0,.966,0,1.931,0,2.9" transform="translate(0 -5.359)" fill="#f29401"/>
    <path id="Path_205" data-name="Path 205" d="M408.468,24.014c-.957.04-18.135.024-18.538-.019l.981-2.715c.529-1.465,1.087-2.921,1.574-4.4a3.877,3.877,0,0,1,1.035-1.472q1.2-1.241,2.416-2.465a1.734,1.734,0,0,0,.439-.71q1.447-4.42,2.906-8.835c.02-.06.042-.119.1-.271l.741,2.119q.8,2.286,1.595,4.572a3.421,3.421,0,0,0,.352.724c.68,1.064,1.331,2.147,2.035,3.195a9.625,9.625,0,0,1,1.279,2.712c.339,1.17.77,2.313,1.094,3.486a17.162,17.162,0,0,0,1.587,3.326c.124.236.253.468.408.754M398.942,7.73c-.512,1.557-1.007,2.988-1.446,4.436a3.778,3.778,0,0,1-1.113,1.809c-.519.461-.954,1.016-1.471,1.479a6.06,6.06,0,0,0-1.886,3c-.2.749-.522,1.466-.787,2.2-.124.342-.241.686-.365,1.04a1.088,1.088,0,0,0,.161.03c2.247,0,4.493,0,6.74.01.281,0,.315-.152.37-.351.447-1.624.868-3.256,1.363-4.866a3.807,3.807,0,0,0,.023-2.555,17.393,17.393,0,0,1-.455-1.768c-.368-1.454-.738-2.907-1.134-4.463" transform="translate(-356.608 -2.859)" fill="#1e73be"/>
    <path id="Path_206" data-name="Path 206" d="M640.905,12.943c0,2.187.033,4.374-.013,6.56a8.649,8.649,0,0,1-.91,3.69,6.423,6.423,0,0,1-4.248,3.476,9.744,9.744,0,0,1-5.1.026,6.682,6.682,0,0,1-5-5.367,10.774,10.774,0,0,1-.284-2.489q.007-6.284-.008-12.567c0-.387.109-.486.477-.462a10.477,10.477,0,0,0,1.45,0c.418-.031.552.077.549.527-.021,3.891-.014,7.782-.01,11.673a11.594,11.594,0,0,0,.281,2.7c.69,2.887,2.774,4.232,5.764,3.957a4.822,4.822,0,0,0,4.406-4.273,12.224,12.224,0,0,0,.206-2.369q0-5.879-.006-11.758c0-.343.073-.48.443-.458a15.405,15.405,0,0,0,1.621,0c.319-.015.408.079.405.4-.015,2.244-.008,4.487-.008,6.731h-.014" transform="translate(-571.901 -5.308)" fill="#f29401"/>
    <path id="Path_207" data-name="Path 207" d="M1438.469,21.686a8.753,8.753,0,0,1-4.393-1.167,5.686,5.686,0,0,1-1.644-1.464c-.125-.166-.146-.267.039-.412.581-.456,1.149-.929,1.716-1.4.152-.127.227-.136.347.052,1.432,2.241,5.133,2.829,7.438,1.065a3.265,3.265,0,0,0,1.15-3.691,2.649,2.649,0,0,0-1.121-1.4,10.586,10.586,0,0,0-2.415-1.046c-1.3-.459-2.614-.849-3.867-1.435-3.947-1.845-3.757-7.22-.792-9.31a8.386,8.386,0,0,1,5.447-1.458,7.094,7.094,0,0,1,4.1,1.348,7.191,7.191,0,0,1,.939.864c.133.147.144.236-.019.373q-.833.7-1.642,1.423c-.164.147-.245.116-.358-.051-1.438-2.137-5.117-2.087-6.915-.648a3.117,3.117,0,0,0,.265,4.944,13.611,13.611,0,0,0,2.935,1.232c.932.3,1.863.6,2.762,1a5.2,5.2,0,0,1,3.488,5.182,5.532,5.532,0,0,1-3.629,5.315,9.368,9.368,0,0,1-3.835.692" transform="translate(-1309.933 0)" fill="#1e73be"/>
    <path id="Path_208" data-name="Path 208" d="M215,16.161c0-3.295,0-6.59-.007-9.885,0-.324.069-.455.419-.436a14.808,14.808,0,0,0,1.621,0c.354-.02.455.085.452.442-.016,2.23-.008,4.459-.008,6.689,0,3.593.007,7.186-.01,10.78,0,.388.113.465.479.463,2.86-.015,5.721,0,8.581-.016.331,0,.443.078.423.418-.03.524-.018,1.051,0,1.576.006.232-.052.321-.3.321q-5.657-.011-11.313,0c-.366,0-.331-.193-.331-.428q0-4.964,0-9.927" transform="translate(-196.623 -5.339)" fill="#f29401"/>
    <path id="Path_209" data-name="Path 209" d="M1266.778,13.91c0,2.485.026,4.97-.009,7.455a5.644,5.644,0,0,1-1.717,4.218A5.364,5.364,0,0,1,1261.659,27a6.273,6.273,0,0,1-4.415-1.06,5.123,5.123,0,0,1-1.865-3.152c-.039-.171.026-.226.181-.257q1.024-.2,2.046-.416c.166-.035.238.025.265.177,0,.028.017.054.024.081.544,2.161,2.361,2.669,4.107,2.222a2.827,2.827,0,0,0,2.052-2.183,8.243,8.243,0,0,0,.26-2.233c0-4.615.005-9.23-.009-13.845,0-.392.1-.512.489-.485a11.588,11.588,0,0,0,1.493,0c.376-.022.5.074.5.482-.021,2.527-.011,5.055-.011,7.583" transform="translate(-1148.088 -5.342)" fill="#1e73be"/>
    <path id="Path_210" data-name="Path 210" d="M1197.722,16.169c0,3.308,0,6.616.007,9.924,0,.325-.069.449-.418.429a14.732,14.732,0,0,0-1.621,0c-.346.018-.464-.071-.455-.438.026-1.093.009-2.186.009-3.279q0-8.241-.009-16.483c0-.368.079-.5.465-.475a12.559,12.559,0,0,0,1.578,0c.354-.021.453.083.451.441-.014,3.294-.008,6.587-.008,9.881" transform="translate(-1093.095 -5.344)" fill="#1e73be"/>
    <path id="Path_211" data-name="Path 211" d="M1521.455,320.395a3.18,3.18,0,0,1-1.93,1.171,3.131,3.131,0,1,1-.859-6.2,3.083,3.083,0,0,1,3.617,3.333c0,.951.047,1.9-.038,2.852a2.718,2.718,0,0,1-2.7,2.609,4.058,4.058,0,0,1-2.163-.337,2.5,2.5,0,0,1-1.226-1.357c-.06-.154-.066-.235.137-.235.334,0,.657-.062.84.365a1.315,1.315,0,0,0,.774.633,3.128,3.128,0,0,0,2.007.12,2.1,2.1,0,0,0,1.536-2.236c.009-.241,0-.483,0-.724m-4.767-1.9a2.252,2.252,0,0,0,2.376,2.343,2.286,2.286,0,0,0,2.391-2.342,2.318,2.318,0,0,0-2.413-2.379,2.286,2.286,0,0,0-2.355,2.378" transform="translate(-1386.286 -288.405)" fill="#1e73be"/>
    <path id="Path_212" data-name="Path 212" d="M157.121,320.3a3.145,3.145,0,0,1-4.877.269,3.177,3.177,0,0,1-.455-3.364,2.869,2.869,0,0,1,2.6-1.834,3.041,3.041,0,0,1,3.529,2.514,11.559,11.559,0,0,1,.041,2.041,10.292,10.292,0,0,1-.07,1.953,2.578,2.578,0,0,1-2.255,2.231,3.73,3.73,0,0,1-2.975-.542,2.55,2.55,0,0,1-.8-1.078c-.083-.191-.038-.249.165-.255a.8.8,0,0,1,.833.387,2.168,2.168,0,0,0,2.2.82,2.021,2.021,0,0,0,2.066-2.144c.022-.289,0-.582,0-1m-4.735-1.795a2.374,2.374,0,0,0,4.748-.023,2.374,2.374,0,1,0-4.748.023" transform="translate(-138.558 -288.401)" fill="#1e73be"/>
    <path id="Path_213" data-name="Path 213" d="M1006.818,321.46a2.5,2.5,0,0,1-2.851,1.165,2.283,2.283,0,0,1-1.722-2.309c-.021-1.15.009-2.3-.014-3.451-.007-.355.193-.311.405-.3s.459-.091.452.3q-.031,1.683,0,3.366a1.6,1.6,0,0,0,1.97,1.665,1.654,1.654,0,0,0,1.35-1.8c.008-1.023.01-2.045,0-3.068,0-.306,0-.492.41-.482.37.009.44.126.436.465-.013,1.107-.027,2.216.026,3.321a1.578,1.578,0,0,0,1.937,1.569,1.468,1.468,0,0,0,1.313-1.45c.055-1.133.029-2.271.036-3.406a.489.489,0,0,1,.736-.475c.129.059.1.162.1.253,0,1.207.023,2.415-.018,3.621a2.215,2.215,0,0,1-1.7,2.182,2.412,2.412,0,0,1-2.766-1.072.693.693,0,0,0-.086-.093" transform="translate(-916.584 -289.461)" fill="#1e73be"/>
    <path id="Path_214" data-name="Path 214" d="M1296.033,318.6c-.81,0-1.621.021-2.43-.009-.386-.015-.392.157-.312.427a2.151,2.151,0,0,0,1.7,1.607,2.29,2.29,0,0,0,2.433-.729c.292-.377.623-.27.949-.257.227.009.077.185.027.277a2.923,2.923,0,0,1-1.994,1.462,3.18,3.18,0,0,1-3.942-2.206,3.107,3.107,0,0,1,2.142-3.88,3.179,3.179,0,0,1,4.076,2.152c.3,1.11.265,1.156-.861,1.156h-1.791m-.456-.754c.667,0,1.333-.009,2,0,.258.006.36-.032.274-.324a2.411,2.411,0,0,0-4.547.037c-.066.243,0,.29.231.286.68-.011,1.362,0,2.042,0" transform="translate(-1181.911 -288.228)" fill="#1e73be"/>
    <path id="Path_215" data-name="Path 215" d="M689.3,319.431a3.1,3.1,0,0,1-2.773,1.817,3.155,3.155,0,0,1-3.145-1.826,3.194,3.194,0,0,1,.777-3.7,3.307,3.307,0,0,1,3.639-.463,2.912,2.912,0,0,1,1.756,2.747c.016.293-.065.385-.371.382-1.608-.016-3.216,0-4.823-.015-.353,0-.4.095-.312.411a2.146,2.146,0,0,0,1.651,1.607,2.255,2.255,0,0,0,2.36-.588,1.2,1.2,0,0,1,1.241-.371m-.649-1.8a2.173,2.173,0,0,0-2.2-1.9,2.27,2.27,0,0,0-2.381,1.6c-.055.2-.081.3.195.3,1.45-.011,2.9-.005,4.387-.005" transform="translate(-624.733 -288.007)" fill="#1e73be"/>
    <path id="Path_216" data-name="Path 216" d="M243.57,320.248c-1.248,1.446-2.758,1.789-4.146,1.015a3.13,3.13,0,0,1-1.441-3.52,3,3,0,0,1,2.687-2.359,3.068,3.068,0,0,1,3.586,2.338,5.578,5.578,0,0,1,.093,1.354c0,.7-.018,1.391.007,2.086.012.33-.136.355-.4.361-.289.006-.417-.065-.387-.375.025-.264.005-.531.005-.9m-2.391-4.124a2.379,2.379,0,1,0,2.339,2.44,2.3,2.3,0,0,0-2.339-2.44" transform="translate(-217.566 -288.413)" fill="#1e73be"/>
    <path id="Path_217" data-name="Path 217" d="M507.585,320.158c-1.243,1.465-2.7,1.817-4.111,1.07a3.094,3.094,0,0,1-1.513-3.444,3.008,3.008,0,0,1,2.606-2.452,3.167,3.167,0,0,1,3.5,1.75,3.51,3.51,0,0,1,.284,1.365c.014.894-.011,1.788.012,2.682.008.323-.148.335-.387.329-.223-.005-.429.024-.4-.316.028-.29.006-.584.006-.984m-.072-1.681a2.389,2.389,0,1,0-2.432,2.346,2.309,2.309,0,0,0,2.432-2.346" transform="translate(-459.004 -288.354)" fill="#1e73be"/>
    <path id="Path_218" data-name="Path 218" d="M772.961,318.283a3.227,3.227,0,1,1-3.213-3.141,3.076,3.076,0,0,1,3.213,3.141m-5.609.009a2.389,2.389,0,1,0,2.4-2.37,2.3,2.3,0,0,0-2.4,2.37" transform="translate(-701.006 -288.211)" fill="#1e73be"/>
    <path id="Path_219" data-name="Path 219" d="M.083,318.3a3.1,3.1,0,0,1,3.245-3.16,3.158,3.158,0,1,1,0,6.315A3.089,3.089,0,0,1,.083,318.3m3.24-2.38a2.379,2.379,0,0,0-.032,4.758,2.379,2.379,0,1,0,.032-4.758" transform="translate(-0.076 -288.211)" fill="#1e73be"/>
    <path id="Path_220" data-name="Path 220" d="M1155.175,291.725c.866-.728,1.664-1.4,2.466-2.073.735-.614.737-.612,1.806-.542-.161.145-.275.255-.4.357-.913.769-1.819,1.546-2.746,2.3-.243.2-.2.285.009.46.978.824,1.943,1.662,2.912,2.5.1.09.2.186.36.329a1.82,1.82,0,0,1-1.619-.36c-.868-.833-1.81-1.59-2.792-2.44,0,.845,0,1.616,0,2.387,0,.145.092.371-.082.421a1.675,1.675,0,0,1-.675,0c-.115-.017-.079-.166-.079-.26,0-2.684,0-5.368-.005-8.052,0-.417.293-.241.479-.266s.377-.044.373.281c-.018,1.491-.008,2.982-.008,4.473v.491" transform="translate(-1055.685 -261.984)" fill="#1e73be"/>
    <path id="Path_221" data-name="Path 221" d="M1229.776,292l3.573,3.078c-.631,0-1.132.123-1.608-.337-.806-.777-1.684-1.481-2.534-2.212-.069-.059-.119-.163-.289-.133,0,.768-.025,1.543.01,2.315.018.394-.177.378-.458.394-.32.018-.4-.078-.4-.4q.021-3.917,0-7.833c0-.326.087-.413.4-.394.278.016.465,0,.458.392-.026,1.587-.011,3.175-.011,4.848.592-.493,1.13-.941,1.667-1.391.294-.246.586-.5.879-.742.67-.566.67-.565,1.706-.443L1229.776,292" transform="translate(-1123.122 -261.991)" fill="#1e73be"/>
    <path id="Path_222" data-name="Path 222" d="M935.728,295.324c0-.951.019-1.9-.009-2.853-.012-.386.2-.346.449-.358.269-.013.421.022.4.355-.03.481.006.965-.013,1.447-.01.265.086.341.341.338.939-.011,1.878.011,2.816-.013.333-.008.356.135.358.4s-.045.369-.344.362c-.924-.021-1.849,0-2.773-.013-.283,0-.4.06-.4.373.018.922,0,1.845.01,2.768a1.512,1.512,0,0,0,3.021.072c.015-.5.333-.285.549-.324.338-.061.273.187.266.374a2.34,2.34,0,0,1-4.669-.075c-.017-.951,0-1.9,0-2.853" transform="translate(-855.756 -267.149)" fill="#1e73be"/>
    <path id="Path_223" data-name="Path 223" d="M438.742,321.468a3.262,3.262,0,0,1-1.6-.388,1.854,1.854,0,0,1-.743-.8c-.271-.573-.176-.707.445-.674a.269.269,0,0,1,.294.231.975.975,0,0,0,.612.665,2.365,2.365,0,0,0,1.943-.02.967.967,0,0,0,.612-.979c-.061-.444-.4-.608-.772-.682-.5-.1-1.012-.147-1.516-.233-1.1-.187-1.607-.654-1.632-1.479a1.807,1.807,0,0,1,1.579-1.874,2.83,2.83,0,0,1,2.36.413,1.523,1.523,0,0,1,.608.944c.025.123.149.333-.055.354-.238.024-.562.185-.727-.116a1.727,1.727,0,0,0-2.378-.708.928.928,0,0,0-.54.935c.034.433.356.59.712.685.674.179,1.385.159,2.054.366a1.546,1.546,0,0,1,.655,2.663,2.329,2.329,0,0,1-1.237.623,6.172,6.172,0,0,1-.671.073" transform="translate(-398.972 -288.219)" fill="#1e73be"/>
    <path id="Path_224" data-name="Path 224" d="M1435.7,319.46c0-.5-.02-.994,0-1.49a2.957,2.957,0,0,1,5.9.251c.011.951-.015,1.9.011,2.853.01.359-.177.338-.419.333s-.44.04-.431-.328c.024-.936.017-1.874.005-2.811a2,2,0,0,0-1.593-2.2,2.028,2.028,0,0,0-2.635,1.99c-.059.99-.041,1.986-.021,2.979.007.356-.145.382-.429.379s-.45-.011-.423-.377c.038-.523.01-1.05.01-1.575h.016" transform="translate(-1312.982 -288.304)" fill="#1e73be"/>
    <path id="Path_225" data-name="Path 225" d="M590.661,295.507c0-1.134.02-2.072-.009-3.008-.012-.384.192-.355.446-.359s.435-.011.412.343c-.032.495,0,.994-.013,1.49-.009.249.08.31.316.307.939-.012,1.878.011,2.817-.013.333-.008.391.1.4.41.01.345-.156.348-.411.345-.91-.01-1.821.013-2.731-.013-.334-.009-.4.1-.393.407.021.866,0,1.732.009,2.6a1.491,1.491,0,0,0,1.967,1.584,1.348,1.348,0,0,0,1.076-1.4c.032-.51.369-.247.577-.292.279-.061.237.158.234.323a2.1,2.1,0,0,1-2.177,2.186,2.121,2.121,0,0,1-2.461-1.873c-.147-1.073-.016-2.155-.059-3.035" transform="translate(-540.174 -267.174)" fill="#1e73be"/>
    <path id="Path_226" data-name="Path 226" d="M326.909,319.454c.029-.514-.045-1.139.038-1.761a2.97,2.97,0,0,1,5.888.608c0,.894-.015,1.789.009,2.683.009.341-.068.461-.436.463s-.414-.132-.409-.443c.017-.922.025-1.846,0-2.768a2.08,2.08,0,0,0-2.879-2.079,1.906,1.906,0,0,0-1.37,1.938c-.011.965-.018,1.931.006,2.9.009.345-.073.449-.436.456-.4.008-.434-.161-.419-.478.022-.467.006-.937.006-1.515" transform="translate(-298.965 -288.33)" fill="#1e73be"/>
    <path id="Path_227" data-name="Path 227" d="M852.809,319.5c0-.567-.04-1.138.007-1.7a2.657,2.657,0,0,1,3.06-2.545,2.714,2.714,0,0,1,2.836,3.021c0,.937-.016,1.874.009,2.81.01.371-.2.326-.431.326s-.437.048-.427-.324c.027-.95.017-1.9.007-2.852a2.085,2.085,0,0,0-2.894-2.095,1.9,1.9,0,0,0-1.353,1.953c-.035.978-.033,1.958-.011,2.937.008.339-.112.393-.413.39s-.442-.041-.421-.388c.031-.509.008-1.021.008-1.532h.022" transform="translate(-779.901 -288.313)" fill="#1e73be"/>
    <path id="Path_228" data-name="Path 228" d="M86.375,319.232c0-.624-.046-1.252.009-1.871a2.265,2.265,0,0,1,2.538-2.227,2.289,2.289,0,0,1,2.474,2.311c.014.18.057.411-.247.359-.216-.037-.538.194-.586-.295a1.623,1.623,0,0,0-2.176-1.546,1.551,1.551,0,0,0-1.2,1.689c-.011,1.093-.019,2.186.007,3.279.009.353-.134.383-.42.38s-.452-.013-.431-.376c.033-.566.009-1.135.009-1.7h.02" transform="translate(-78.966 -288.203)" fill="#1e73be"/>
    <path id="Path_229" data-name="Path 229" d="M1381.1,290.839c0-1.32.016-2.641-.01-3.961-.007-.378.182-.355.44-.364.282-.01.423.018.421.375q-.027,3.94,0,7.879c0,.372-.167.362-.432.367-.283.006-.435-.021-.428-.379.024-1.306.009-2.612.009-3.918" transform="translate(-1263.069 -262.028)" fill="#1e73be"/>
    <path id="Path_230" data-name="Path 230" d="M412.476,320.074c0-.894.018-1.789-.009-2.682-.011-.35.181-.319.4-.31s.454-.085.451.306q-.024,2.7,0,5.407c0,.4-.27.268-.467.283s-.386.047-.379-.28c.021-.908.007-1.817.007-2.725" transform="translate(-377.218 -289.981)" fill="#1e73be"/>
    <path id="Path_231" data-name="Path 231" d="M660.8,320.068c0,.894-.018,1.789.009,2.682.01.344-.173.324-.395.311s-.457.095-.454-.3q.023-2.7,0-5.407c0-.4.264-.27.464-.291.237-.025.393,0,.384.323-.025.894-.009,1.788-.009,2.682" transform="translate(-603.562 -289.961)" fill="#1e73be"/>
    <path id="Path_232" data-name="Path 232" d="M1126.44,320.119c0,.88-.018,1.76.009,2.64.011.358-.177.338-.418.333s-.435.04-.431-.327q.026-2.682,0-5.365c0-.386.23-.306.446-.31s.414-.051.4.305c-.027.908-.009,1.816-.009,2.725" transform="translate(-1029.409 -289.988)" fill="#1e73be"/>
    <path id="Path_233" data-name="Path 233" d="M1409.929,320.035c0-.878.018-1.757-.009-2.635-.011-.359.176-.346.417-.334.217.011.445-.069.441.316q-.028,2.677,0,5.354c0,.41-.239.312-.466.334-.28.028-.4-.041-.392-.359.023-.892.008-1.785.008-2.677" transform="translate(-1289.433 -289.967)" fill="#1e73be"/>
    <path id="Path_234" data-name="Path 234" d="M1407.96,289.046a.614.614,0,0,1,.617.658.6.6,0,0,1-.628.6.615.615,0,0,1-.628-.649.636.636,0,0,1,.639-.605" transform="translate(-1287.056 -264.345)" fill="#1e73be"/>
    <path id="Path_235" data-name="Path 235" d="M1124.529,289.669a.633.633,0,0,1-1.266,0,.633.633,0,1,1,1.266,0" transform="translate(-1027.274 -264.337)" fill="#1e73be"/>
    <path id="Path_236" data-name="Path 236" d="M658.867,289.651a.62.62,0,0,1-.658.62.608.608,0,0,1-.608-.624.636.636,0,0,1,.611-.633.649.649,0,0,1,.655.637" transform="translate(-601.405 -264.315)" fill="#1e73be"/>
    <path id="Path_237" data-name="Path 237" d="M411.222,289.647a.606.606,0,0,1-.647.624.622.622,0,0,1-.618-.619.648.648,0,0,1,.655-.638.635.635,0,0,1,.611.633" transform="translate(-374.923 -264.316)" fill="#1e73be"/>
  </g>
</svg>
