<svg xmlns="http://www.w3.org/2000/svg" xmlns:xlink="http://www.w3.org/1999/xlink" width="25.795" height="25.795" viewBox="0 0 25.795 25.795">
  <defs>
    <clipPath id="clip-path">
      <rect id="Rectangle_71" data-name="Rectangle 71" width="25.795" height="25.795" fill="#1e73be"/>
    </clipPath>
  </defs>
  <g id="Group_95" data-name="Group 95" transform="translate(0 2)">
    <g id="Group_94" data-name="Group 94" transform="translate(0 -2)" clip-path="url(#clip-path)">
      <path id="Path_199" data-name="Path 199" d="M25.792,12.906q0,5.391,0,10.781a2.327,2.327,0,0,1-.311,1.277,1.452,1.452,0,0,1-1.188.762c-.352.021-.7.065-1.056.066q-10.345.006-20.689,0a7.447,7.447,0,0,1-.828-.038A1.75,1.75,0,0,1,.007,23.823Q0,18.57,0,13.318,0,7.674,0,2.03A2.165,2.165,0,0,1,.4.691,1.435,1.435,0,0,1,1.382.076,7.356,7.356,0,0,1,2.484,0H23.311c.23,0,.461,0,.691.022a1.75,1.75,0,0,1,1.787,1.919q.011,5.16,0,10.32v.645m-11.9-1.68c0-.365-.014-.731,0-1.1.014-.284-.095-.372-.374-.369-1,.013-2,.016-3,0-.3-.005-.359.121-.359.381q.007,5.806,0,11.612c0,.3.11.393.407.388,1.014-.016,2.028-.019,3.041,0,.346.007.445-.1.442-.446-.015-1.92,0-3.84-.01-5.76a7.1,7.1,0,0,1,.156-1.508A1.864,1.864,0,0,1,16.258,12.9c1.009.071,1.576.253,1.874,1.532a8.413,8.413,0,0,1,.177,1.92c0,1.782.008,3.563-.007,5.345,0,.336.081.458.436.449.952-.023,1.905-.027,2.857,0,.416.012.554-.1.55-.537-.019-2.381,0-4.761-.01-7.142a7.481,7.481,0,0,0-.488-2.563A3.008,3.008,0,0,0,20.1,10.036a5.587,5.587,0,0,0-3.993-.328A5.185,5.185,0,0,0,13.9,11.226M3.952,15.92c0,1.919.006,3.838-.006,5.758,0,.323.062.472.427.465,1.028-.021,2.058-.013,3.086,0,.268,0,.383-.069.382-.362q-.011-5.827,0-11.653c0-.292-.107-.364-.378-.361-1.029.012-2.058.02-3.086,0-.358-.008-.434.117-.432.45.014,1.9.007,3.807.007,5.711M5.867,8.113a2.25,2.25,0,0,0,2.252-2.2A2.253,2.253,0,0,0,5.843,3.69,2.18,2.18,0,0,0,3.665,5.94a2.173,2.173,0,0,0,2.2,2.173" transform="translate(0)" fill="#1e73be"/>
    </g>
  </g>
</svg>
