<?xml version="1.0" encoding="UTF-8"?>
<svg id="Group_108" xmlns="http://www.w3.org/2000/svg" xmlns:xlink="http://www.w3.org/1999/xlink" version="1.1" viewBox="0 0 136 35.8">
  <!-- Generator: Adobe Illustrator 29.2.1, SVG Export Plug-In . SVG Version: 2.1.0 Build 116)  -->
  <defs>
    <style>
      .st0 {
        fill: #fff;
      }

      .st1 {
        fill: #f29401;
      }
    </style>
  </defs>
  <g id="Group_108-2">
    <path id="Path_203" class="st1" d="M85.5,3.8c-.3,1-.6,2-.9,3-1.4,4.7-2.7,9.3-4.1,14,0,.2-.2.4-.5.4,0,0,0,0,0,0-.6,0-1.3,0-1.9,0-.3,0-.4,0-.5-.4-1.3-4.4-2.6-8.8-3.9-13.3-.6-2.2-1.3-4.4-1.9-6.6-.1-.4,0-.4.3-.4.6,0,1.2,0,1.8,0,.4,0,.5,0,.6.4,1.4,5.2,2.9,10.5,4.3,15.7,0,.3.2.6.3,1,.4-1.3.7-2.4,1.1-3.6,1.3-4.4,2.6-8.8,3.9-13.2,0-.3.2-.5.6-.4.6,0,1.3,0,1.9,0,.3,0,.5.1.6.4,0,0,0,0,0,0,1.6,5.4,3.2,10.9,4.8,16.3,0,.1,0,.2.1.4.2-.2.3-.5.3-.8,1.5-5.3,3-10.6,4.4-15.9,0-.3.2-.4.5-.4.6,0,1.2,0,1.8,0,.4,0,.4,0,.3.4-1.4,4.6-2.7,9.2-4.1,13.8-.6,2-1.2,4-1.8,6,0,.3-.2.5-.6.4-.6,0-1.3,0-1.9,0-.3,0-.4,0-.5-.4-.9-3.2-1.9-6.4-2.8-9.5-.7-2.4-1.4-4.8-2.1-7.1,0-.1,0-.3-.2-.3"/>
    <path id="Path_204" class="st1" d="M9.7,10.2c1,.2,2,.6,2.7,1.3,1.2,1,1.9,2.6,1.8,4.2-.1,2.9-2.1,4.4-4.5,5-1.1.3-2.2.4-3.3.4-2,0-4,0-6.1,0-.3,0-.4,0-.4-.4,0-6.6,0-13.3,0-19.9,0-.3,0-.4.3-.4,2.2,0,4.5,0,6.7,0,1.5,0,2.9.4,4.2,1.2,1.5,1,2.3,2.8,1.9,4.6-.2,1.7-1.3,3.1-2.8,3.7-.2,0-.4.2-.6.2M2.5,15.2c0,1.1,0,2.2,0,3.3,0,.3,0,.4.4.4,1.3,0,2.7,0,4,0,1.1,0,2.1-.3,3-.7,1.6-.9,2.2-2.9,1.3-4.6,0,0,0-.1-.1-.2-.7-1-1.8-1.6-3.1-1.7-1.8-.2-3.5,0-5.3-.1-.3,0-.2.2-.2.3v3.3M2.5,6c0,.9,0,1.9,0,2.8,0,.3,0,.4.4.4,1.1,0,2.3,0,3.4,0,.7,0,1.3,0,2-.3,1.2-.3,2.1-1.3,2.3-2.5.1-1.6-.3-2.6-1.6-3.1-.4-.2-.8-.3-1.3-.4-1.6-.1-3.3-.2-4.9-.1-.3,0-.3.1-.3.3v2.9"/>
    <path id="Path_205" class="st0" d="M51.9,21.2c-1,0-18.1,0-18.5,0l1-2.7c.5-1.5,1.1-2.9,1.6-4.4.2-.6.6-1.1,1-1.5.8-.8,1.6-1.6,2.4-2.5.2-.2.4-.4.4-.7,1-2.9,1.9-5.9,2.9-8.8,0,0,0-.1.1-.3l.7,2.1c.5,1.5,1.1,3,1.6,4.6,0,.3.2.5.4.7.7,1.1,1.3,2.1,2,3.2.6.8,1,1.7,1.3,2.7.3,1.2.8,2.3,1.1,3.5.4,1.2.9,2.3,1.6,3.3.1.2.3.5.4.8M42.3,4.9c-.5,1.6-1,3-1.4,4.4-.2.7-.6,1.3-1.1,1.8-.5.5-1,1-1.5,1.5-.9.8-1.6,1.8-1.9,3-.2.7-.5,1.5-.8,2.2-.1.3-.2.7-.4,1,0,0,.1,0,.2,0,2.2,0,4.5,0,6.7,0,.3,0,.3-.2.4-.4.4-1.6.9-3.3,1.4-4.9.3-.8.3-1.7,0-2.6-.2-.6-.3-1.2-.5-1.8-.4-1.5-.7-2.9-1.1-4.5"/>
    <path id="Path_206" class="st1" d="M69,7.6c0,2.2,0,4.4,0,6.6,0,1.3-.3,2.5-.9,3.7-.8,1.7-2.4,3-4.2,3.5-1.7.5-3.4.5-5.1,0-2.6-.6-4.6-2.7-5-5.4-.2-.8-.3-1.7-.3-2.5,0-4.2,0-8.4,0-12.6,0-.4.1-.5.5-.5.5,0,1,0,1.5,0,.4,0,.6,0,.5.5,0,3.9,0,7.8,0,11.7,0,.9,0,1.8.3,2.7.7,2.9,2.8,4.2,5.8,4,2.3-.2,4.2-2,4.4-4.3.1-.8.2-1.6.2-2.4,0-3.9,0-7.8,0-11.8,0-.3,0-.5.4-.5.5,0,1.1,0,1.6,0,.3,0,.4,0,.4.4,0,2.2,0,4.5,0,6.7h0"/>
    <path id="Path_207" class="st0" d="M128.5,21.7c-1.5,0-3.1-.4-4.4-1.2-.6-.4-1.2-.9-1.6-1.5-.1-.2-.1-.3,0-.4.6-.5,1.1-.9,1.7-1.4.2-.1.2-.1.3,0,1.4,2.2,5.1,2.8,7.4,1.1,1.1-.8,1.6-2.3,1.2-3.7-.2-.6-.6-1.1-1.1-1.4-.8-.4-1.6-.8-2.4-1-1.3-.5-2.6-.8-3.9-1.4-3.9-1.8-3.8-7.2-.8-9.3,1.6-1.1,3.5-1.6,5.4-1.5,1.5,0,2.9.5,4.1,1.3.3.3.7.5.9.9.1.1.1.2,0,.4-.6.5-1.1.9-1.6,1.4-.2.1-.2.1-.4,0-1.4-2.1-5.1-2.1-6.9-.6-1.3,1.1-1.5,3.1-.3,4.4.2.2.4.4.6.5.9.5,1.9.9,2.9,1.2.9.3,1.9.6,2.8,1,2.2.8,3.6,2.9,3.5,5.2,0,2.4-1.4,4.5-3.6,5.3-1.2.5-2.5.7-3.8.7"/>
    <path id="Path_208" class="st1" d="M18.4,10.8c0-3.3,0-6.6,0-9.9,0-.3,0-.5.4-.4.5,0,1.1,0,1.6,0,.4,0,.5,0,.5.4,0,2.2,0,4.5,0,6.7,0,3.6,0,7.2,0,10.8,0,.4.1.5.5.5,2.9,0,5.7,0,8.6,0,.3,0,.4,0,.4.4,0,.5,0,1.1,0,1.6,0,.2,0,.3-.3.3-3.8,0-7.5,0-11.3,0-.4,0-.3-.2-.3-.4,0-3.3,0-6.6,0-9.9"/>
    <path id="Path_209" class="st0" d="M118.7,8.6c0,2.5,0,5,0,7.5,0,1.6-.6,3.1-1.7,4.2-.9.9-2.1,1.4-3.4,1.4-1.6.2-3.1-.2-4.4-1.1-1-.8-1.7-1.9-1.9-3.2,0-.2,0-.2.2-.3.7-.1,1.4-.3,2-.4.2,0,.2,0,.3.2,0,0,0,0,0,0,.5,2.2,2.4,2.7,4.1,2.2,1-.3,1.8-1.1,2.1-2.2.2-.7.3-1.5.3-2.2,0-4.6,0-9.2,0-13.8,0-.4,0-.5.5-.5.5,0,1,0,1.5,0,.4,0,.5,0,.5.5,0,2.5,0,5.1,0,7.6"/>
    <path id="Path_210" class="st0" d="M104.6,10.8c0,3.3,0,6.6,0,9.9,0,.3,0,.4-.4.4-.5,0-1.1,0-1.6,0-.3,0-.5,0-.5-.4,0-1.1,0-2.2,0-3.3,0-5.5,0-11,0-16.5,0-.4,0-.5.5-.5.5,0,1.1,0,1.6,0,.4,0,.5,0,.5.4,0,3.3,0,6.6,0,9.9"/>
    <path id="Path_211" class="st0" d="M135.2,32c-.5.6-1.2,1-1.9,1.2-1.7.3-3.3-.9-3.6-2.6s.9-3.3,2.6-3.6c0,0,.1,0,.2,0,1.7-.3,3.3.8,3.6,2.5,0,.3,0,.6,0,.8,0,1,0,1.9,0,2.9,0,1.5-1.2,2.6-2.7,2.6-.7,0-1.5,0-2.2-.3-.6-.3-1-.8-1.2-1.4,0-.2,0-.2.1-.2.3,0,.7,0,.8.4.2.3.4.5.8.6.6.3,1.3.3,2,.1,1-.3,1.6-1.2,1.5-2.2,0-.2,0-.5,0-.7M130.4,30.1c0,1.2.9,2.3,2.2,2.3,0,0,.1,0,.2,0,1.3,0,2.3-.9,2.4-2.2,0,0,0-.1,0-.2,0-1.3-1-2.3-2.3-2.4,0,0-.1,0-.2,0-1.3,0-2.3,1-2.4,2.2,0,0,0,.1,0,.2"/>
    <path id="Path_212" class="st0" d="M18.6,31.9c-1,1.4-3,1.7-4.4.7-.2-.1-.3-.3-.5-.4-.8-.9-1-2.2-.5-3.4.4-1.1,1.4-1.8,2.6-1.8,1.7-.3,3.2.8,3.5,2.5,0,0,0,0,0,0,0,.7,0,1.4,0,2,0,.7,0,1.3,0,2-.2,1.2-1.1,2.1-2.3,2.2-1,.2-2.1,0-3-.5-.4-.3-.6-.7-.8-1.1,0-.2,0-.2.2-.3.3,0,.7,0,.8.4.5.7,1.4,1,2.2.8,1.1,0,2-.9,2.1-2,0,0,0-.1,0-.2,0-.3,0-.6,0-1M13.8,30.1c0,1.3,1.1,2.4,2.4,2.4,1.3,0,2.4-1.1,2.4-2.4h0c0-1.3-1.1-2.4-2.4-2.4-1.3,0-2.4,1.1-2.4,2.4"/>
    <path id="Path_213" class="st0" d="M90.2,32c-.6,1-1.7,1.5-2.9,1.2-1-.3-1.8-1.2-1.7-2.3,0-1.1,0-2.3,0-3.5,0-.4.2-.3.4-.3s.5,0,.5.3c0,1.1,0,2.2,0,3.4,0,.9.6,1.6,1.5,1.7.2,0,.3,0,.5,0,.9-.2,1.4-.9,1.3-1.8,0-1,0-2,0-3.1,0-.3,0-.5.4-.5.4,0,.4.1.4.5,0,1.1,0,2.2,0,3.3,0,.9.7,1.6,1.5,1.6.1,0,.3,0,.4,0,.7,0,1.3-.7,1.3-1.5,0-1.1,0-2.3,0-3.4,0-.3.2-.5.4-.5.1,0,.2,0,.3,0,.1,0,0,.2,0,.3,0,1.2,0,2.4,0,3.6,0,1-.7,1.9-1.7,2.2-1.1.3-2.2-.1-2.8-1.1,0,0,0,0,0,0"/>
    <path id="Path_214" class="st0" d="M114.1,30.4c-.8,0-1.6,0-2.4,0-.4,0-.4.2-.3.4.2.8.9,1.5,1.7,1.6.9.3,1.8,0,2.4-.7.3-.4.6-.3.9-.3.2,0,0,.2,0,.3-.4.8-1.1,1.3-2,1.5-1.7.5-3.4-.5-3.9-2.2,0,0,0,0,0,0-.5-1.6.4-3.4,2.1-3.9,0,0,0,0,0,0,1.7-.6,3.5.3,4,2,0,0,0,.1,0,.2.3,1.1.3,1.2-.9,1.2h-1.8M113.7,29.6c.7,0,1.3,0,2,0,.3,0,.4,0,.3-.3-.5-1.3-1.8-1.9-3.1-1.4-.7.2-1.2.8-1.5,1.5,0,.2,0,.3.2.3.7,0,1.4,0,2,0"/>
    <path id="Path_215" class="st0" d="M64.6,31.4c-.5,1.1-1.6,1.8-2.8,1.8-1.3.1-2.6-.6-3.1-1.8-.6-1.3-.3-2.8.8-3.7,1-.9,2.4-1.1,3.6-.5,1.1.5,1.8,1.6,1.8,2.7,0,.3,0,.4-.4.4-1.6,0-3.2,0-4.8,0-.4,0-.4,0-.3.4.2.8.8,1.4,1.7,1.6.8.3,1.8,0,2.4-.6.3-.4.8-.5,1.2-.4M63.9,29.6c-.1-1.1-1.1-1.9-2.2-1.9-1.1,0-2.1.6-2.4,1.6,0,.2,0,.3.2.3,1.5,0,2.9,0,4.4,0"/>
    <path id="Path_216" class="st0" d="M26,31.8c-1.2,1.4-2.8,1.8-4.1,1-1.2-.7-1.8-2.2-1.4-3.5.3-1.3,1.4-2.3,2.7-2.4,1.6-.3,3.2.7,3.6,2.3,0,.4.1.9,0,1.4,0,.7,0,1.4,0,2.1,0,.3-.1.4-.4.4-.3,0-.4,0-.4-.4,0-.3,0-.5,0-.9M23.6,27.7c-1.3,0-2.4,1-2.4,2.3,0,1.3,1,2.4,2.3,2.4,1.3,0,2.4-1,2.4-2.3,0-1.3-.9-2.4-2.2-2.4,0,0-.1,0-.2,0"/>
    <path id="Path_217" class="st0" d="M48.6,31.8c-1.2,1.5-2.7,1.8-4.1,1.1-1.2-.7-1.8-2.1-1.5-3.4.2-1.3,1.3-2.3,2.6-2.5,1.4-.3,2.9.4,3.5,1.8.2.4.3.9.3,1.4,0,.9,0,1.8,0,2.7,0,.3-.1.3-.4.3-.2,0-.4,0-.4-.3,0-.3,0-.6,0-1M48.5,30.1c0-1.3-1-2.4-2.3-2.4-1.3,0-2.4,1-2.4,2.3,0,1.3,1,2.4,2.3,2.4,1.3,0,2.4-.9,2.4-2.2,0,0,0-.1,0-.2"/>
    <path id="Path_218" class="st0" d="M72,30.1c0,1.8-1.4,3.3-3.1,3.3-1.8,0-3.3-1.4-3.3-3.1s1.4-3.3,3.1-3.3c0,0,0,0,0,0,1.7,0,3.1,1.2,3.2,2.9,0,0,0,.1,0,.2M66.3,30.1c0,1.3,1.1,2.4,2.4,2.4,1.3,0,2.4-1.1,2.4-2.4,0-1.3-1.1-2.4-2.4-2.4,0,0,0,0,0,0-1.3,0-2.3.9-2.4,2.2,0,0,0,.1,0,.2"/>
    <path id="Path_219" class="st0" d="M0,30.1c0-1.7,1.3-3.1,3-3.2,0,0,.1,0,.2,0,1.7,0,3.2,1.4,3.2,3.1,0,1.7-1.4,3.2-3.1,3.2,0,0,0,0-.1,0-1.7,0-3.2-1.2-3.2-2.9,0,0,0-.2,0-.2M3.2,27.7c-1.3,0-2.4,1-2.4,2.4,0,1.3,1,2.4,2.4,2.4h0c1.3,0,2.4-1,2.4-2.4,0-1.3-1-2.4-2.4-2.4"/>
    <path id="Path_220" class="st0" d="M99.5,29.7c.9-.7,1.7-1.4,2.5-2.1q.7-.6,1.8-.5c-.2.1-.3.3-.4.4-.9.8-1.8,1.5-2.7,2.3-.2.2-.2.3,0,.5,1,.8,1.9,1.7,2.9,2.5,0,0,.2.2.4.3-.6.1-1.2,0-1.6-.4-.9-.8-1.8-1.6-2.8-2.4v2.4c0,.1,0,.4,0,.4-.2,0-.5,0-.7,0-.1,0,0-.2,0-.3,0-2.7,0-5.4,0-8.1,0-.4.3-.2.5-.3s.4,0,.4.3c0,1.5,0,3,0,4.5v.5"/>
    <path id="Path_221" class="st0" d="M106.7,30l3.6,3.1c-.6,0-1.1.1-1.6-.3-.8-.8-1.7-1.5-2.5-2.2,0,0-.1-.2-.3-.1,0,.8,0,1.5,0,2.3,0,.4-.2.4-.5.4-.3,0-.4,0-.4-.4,0-2.6,0-5.2,0-7.8,0-.3,0-.4.4-.4.3,0,.5,0,.5.4,0,1.6,0,3.2,0,4.8.6-.5,1.1-.9,1.7-1.4.3-.2.6-.5.9-.7q.7-.6,1.7-.4l-3.4,2.9"/>
    <path id="Path_222" class="st0" d="M80,28.2c0-1,0-1.9,0-2.9,0-.4.2-.3.4-.4.3,0,.4,0,.4.4,0,.5,0,1,0,1.4,0,.3,0,.3.3.3.9,0,1.9,0,2.8,0,.3,0,.4.1.4.4s0,.4-.3.4c-.9,0-1.8,0-2.8,0-.3,0-.4,0-.4.4,0,.9,0,1.8,0,2.8,0,.8.7,1.5,1.5,1.5.8,0,1.4-.6,1.5-1.4,0-.5.3-.3.5-.3.3,0,.3.2.3.4-.1,1.3-1.2,2.2-2.5,2.1-1.2,0-2.1-1-2.1-2.2,0-1,0-1.9,0-2.9"/>
    <path id="Path_223" class="st0" d="M39.8,33.2c-.6,0-1.1-.1-1.6-.4-.3-.2-.6-.5-.7-.8-.3-.6-.2-.7.4-.7.1,0,.3,0,.3.2,0,.3.3.6.6.7.6.3,1.3.3,1.9,0,.4-.2.6-.6.6-1,0-.4-.4-.6-.8-.7-.5-.1-1-.1-1.5-.2-1.1-.2-1.6-.7-1.6-1.5,0-.9.6-1.8,1.6-1.9.8-.2,1.7,0,2.4.4.3.2.5.6.6.9,0,.1.1.3,0,.4-.2,0-.6.2-.7-.1-.4-.8-1.5-1.2-2.3-.7,0,0,0,0,0,0-.4.2-.6.5-.5.9,0,.4.4.6.7.7.7.2,1.4.2,2.1.4.8.2,1.3,1,1.1,1.9,0,.3-.2.6-.5.8-.3.3-.8.5-1.2.6-.2,0-.4,0-.7,0"/>
    <path id="Path_224" class="st0" d="M122.7,31.2c0-.5,0-1,0-1.5.2-1.6,1.6-2.8,3.2-2.7,1.5.1,2.7,1.4,2.7,2.9,0,1,0,1.9,0,2.9,0,.4-.2.3-.4.3s-.4,0-.4-.3c0-.9,0-1.9,0-2.8.1-1-.6-2-1.6-2.2-1.1-.3-2.2.3-2.5,1.3,0,.2,0,.4,0,.7,0,1,0,2,0,3,0,.4-.1.4-.4.4s-.4,0-.4-.4c0-.5,0-1,0-1.6h0"/>
    <path id="Path_225" class="st0" d="M50.5,28.3c0-1.1,0-2.1,0-3,0-.4.2-.4.4-.4s.4,0,.4.3c0,.5,0,1,0,1.5,0,.2,0,.3.3.3.9,0,1.9,0,2.8,0,.3,0,.4.1.4.4,0,.3-.2.3-.4.3-.9,0-1.8,0-2.7,0-.3,0-.4.1-.4.4,0,.9,0,1.7,0,2.6,0,.8.5,1.6,1.3,1.7.2,0,.4,0,.7,0,.7-.1,1.1-.7,1.1-1.4,0-.5.4-.2.6-.3.3,0,.2.2.2.3,0,1.2-.9,2.1-2,2.2,0,0-.1,0-.2,0-1.2.2-2.2-.6-2.4-1.7,0,0,0,0,0-.1-.1-1.1,0-2.2,0-3"/>
    <path id="Path_226" class="st0" d="M27.9,31.1c0-.5,0-1.1,0-1.8.3-1.6,1.9-2.7,3.5-2.4,1.4.3,2.4,1.5,2.4,3,0,.9,0,1.8,0,2.7,0,.3,0,.5-.4.5s-.4-.1-.4-.4c0-.9,0-1.8,0-2.8,0-1.1-.8-2.1-1.9-2.2-.3,0-.7,0-1,.2-.9.2-1.4,1.1-1.4,1.9,0,1,0,1.9,0,2.9,0,.3,0,.4-.4.5-.4,0-.4-.2-.4-.5,0-.5,0-.9,0-1.5"/>
    <path id="Path_227" class="st0" d="M72.9,31.2c0-.6,0-1.1,0-1.7,0-1.5,1.3-2.6,2.7-2.6.1,0,.2,0,.3,0,1.5,0,2.8,1.1,2.9,2.6,0,.2,0,.3,0,.5,0,.9,0,1.9,0,2.8,0,.4-.2.3-.4.3s-.4,0-.4-.3c0-1,0-1.9,0-2.9,0-1.1-.8-2.2-1.9-2.3-.3,0-.7,0-1,.2-.9.3-1.4,1.1-1.4,2,0,1,0,2,0,2.9,0,.3-.1.4-.4.4s-.4,0-.4-.4c0-.5,0-1,0-1.5h0"/>
    <path id="Path_228" class="st0" d="M7.4,31c0-.6,0-1.3,0-1.9,0-1.3,1-2.3,2.3-2.2,0,0,.2,0,.3,0,1.3-.1,2.4.8,2.5,2.1,0,0,0,.1,0,.2,0,.2,0,.4-.2.4-.2,0-.5.2-.6-.3,0-.9-.7-1.6-1.6-1.6-.2,0-.4,0-.6,0-.8.2-1.3.9-1.2,1.7,0,1.1,0,2.2,0,3.3,0,.4-.1.4-.4.4s-.5,0-.4-.4c0-.6,0-1.1,0-1.7h0"/>
    <path id="Path_229" class="st0" d="M118,28.8c0-1.3,0-2.6,0-4,0-.4.2-.4.4-.4.3,0,.4,0,.4.4,0,2.6,0,5.3,0,7.9,0,.4-.2.4-.4.4-.3,0-.4,0-.4-.4,0-1.3,0-2.6,0-3.9"/>
    <path id="Path_230" class="st0" d="M35.3,30.1c0-.9,0-1.8,0-2.7,0-.4.2-.3.4-.3s.5,0,.5.3c0,1.8,0,3.6,0,5.4,0,.4-.3.3-.5.3s-.4,0-.4-.3c0-.9,0-1.8,0-2.7"/>
    <path id="Path_231" class="st0" d="M57.2,30.1c0,.9,0,1.8,0,2.7,0,.3-.2.3-.4.3s-.5,0-.5-.3c0-1.8,0-3.6,0-5.4,0-.4.3-.3.5-.3.2,0,.4,0,.4.3,0,.9,0,1.8,0,2.7"/>
    <path id="Path_232" class="st0" d="M97,30.1c0,.9,0,1.8,0,2.6,0,.4-.2.3-.4.3s-.4,0-.4-.3c0-1.8,0-3.6,0-5.4,0-.4.2-.3.4-.3s.4,0,.4.3c0,.9,0,1.8,0,2.7"/>
    <path id="Path_233" class="st0" d="M120.5,30.1c0-.9,0-1.8,0-2.6,0-.4.2-.3.4-.3.2,0,.4,0,.4.3,0,1.8,0,3.6,0,5.4,0,.4-.2.3-.5.3-.3,0-.4,0-.4-.4,0-.9,0-1.8,0-2.7"/>
    <path id="Path_234" class="st0" d="M120.9,24.7c.3,0,.6.3.6.6,0,0,0,0,0,0,0,.3-.3.6-.6.6,0,0,0,0,0,0-.3,0-.6-.3-.6-.6,0,0,0,0,0,0,0-.3.3-.6.6-.6"/>
    <path id="Path_235" class="st0" d="M97.3,25.3c0,.3-.3.6-.6.6-.3,0-.6-.3-.6-.6,0-.3.3-.6.6-.6.3,0,.6.3.6.6h0"/>
    <path id="Path_236" class="st0" d="M57.5,25.3c0,.3-.3.6-.6.6,0,0,0,0,0,0-.3,0-.6-.3-.6-.6,0,0,0,0,0,0,0-.3.3-.6.6-.6.4,0,.6.3.7.6"/>
    <path id="Path_237" class="st0" d="M36.3,25.3c0,.3-.3.6-.6.6,0,0,0,0,0,0-.3,0-.6-.3-.6-.6,0-.4.3-.6.7-.6.3,0,.6.3.6.6"/>
  </g>
</svg>