<svg xmlns="http://www.w3.org/2000/svg" width="16.999" height="12.742" viewBox="0 0 16.999 12.742">
  <g id="Group_27" data-name="Group 27" transform="translate(-697.999 -2810.211)">
    <path id="Path_4" data-name="Path 4" d="M.042,0C.825.585,1.615,1.169,2.4,1.756Q4.753,3.51,7.1,5.266a2.125,2.125,0,0,0,2.8-.036Q13.293,2.69,16.692.164c.068-.052.145-.1.216-.147.1.057.06.145.06.216q0,3.241,0,6.482A2.148,2.148,0,0,1,14.7,8.951q-6.219,0-12.439,0A2.161,2.161,0,0,1-.016,6.686Q-.024,3.446-.024.208A.249.249,0,0,1,.042,0" transform="translate(698.023 2814)" fill="#f29401"/>
    <path id="Path_5" data-name="Path 5" d="M5.381,0h6.566a2.683,2.683,0,0,1,.94.145,1.565,1.565,0,0,1,.587,2.469A11.027,11.027,0,0,1,12,3.781q-2.917,2.2-5.842,4.381A1.136,1.136,0,0,1,4.6,8.173c-2.33-1.745-4.657-3.5-6.992-5.239A1.6,1.6,0,0,1-2.5.342,1.928,1.928,0,0,1-1.237,0q3.31-.008,6.618,0" transform="translate(701.128 2810.211)" fill="#f29401"/>
  </g>
</svg>
