<svg id="Group_23" data-name="Group 23" xmlns="http://www.w3.org/2000/svg" xmlns:xlink="http://www.w3.org/1999/xlink" width="6.652" height="11.41" viewBox="0 0 6.652 11.41">
  <defs>
    <clipPath id="clip-path">
      <rect id="Rectangle_32" data-name="Rectangle 32" width="6.652" height="11.41" fill="#fff"/>
    </clipPath>
  </defs>
  <g id="Group_22" data-name="Group 22" clip-path="url(#clip-path)">
    <path id="Path_2" data-name="Path 2" d="M.967,0a1.07,1.07,0,0,1,.709.322q2.33,2.328,4.657,4.66a.978.978,0,0,1,0,1.443Q4,8.77,1.662,11.1A.986.986,0,0,1,.27,11.14a.991.991,0,0,1,.059-1.41c1.19-1.186,2.388-2.365,3.578-3.55.155-.154.431-.291.417-.482-.012-.164-.262-.315-.413-.465Q2.13,3.466.347,1.7A.961.961,0,0,1,.136.472.911.911,0,0,1,.967,0" transform="translate(0)" fill="#fff"/>
  </g>
</svg>
