<svg id="Group_37" data-name="Group 37" xmlns="http://www.w3.org/2000/svg" xmlns:xlink="http://www.w3.org/1999/xlink" width="6.652" height="11.41" viewBox="0 0 6.652 11.41">
  <defs>
    <clipPath id="clip-path">
      <rect id="Rectangle_32" data-name="Rectangle 32" width="6.652" height="11.41" fill="#fff"/>
    </clipPath>
  </defs>
  <g id="Group_22" data-name="Group 22" clip-path="url(#clip-path)">
    <path id="Path_2" data-name="Path 2" d="M5.685,0a1.07,1.07,0,0,0-.709.322Q2.646,2.651.319,4.983a.978.978,0,0,0,0,1.443Q2.648,8.77,4.991,11.1A.959.959,0,1,0,6.324,9.731C5.134,8.544,3.936,7.366,2.746,6.18c-.155-.154-.431-.291-.417-.482.012-.164.262-.315.413-.465Q4.523,3.466,6.306,1.7A.961.961,0,0,0,6.517.472.911.911,0,0,0,5.685,0" transform="translate(0)" fill="#fff"/>
  </g>
</svg>
