<svg xmlns="http://www.w3.org/2000/svg" width="15.398" height="15.409" viewBox="0 0 15.398 15.409">
  <path id="Path_3" data-name="Path 3" d="M8.205,9.768a13.529,13.529,0,0,1-3.66-.656A13.273,13.273,0,0,1-.232,6.348a13.582,13.582,0,0,1-3.411-4.7,12.754,12.754,0,0,1-.926-3.226,14.012,14.012,0,0,1-.169-1.942,1.289,1.289,0,0,1,1.005-1.4c.8-.238,1.6-.47,2.409-.672a1.211,1.211,0,0,1,1.549.743c.358.91.754,1.805,1.125,2.71A1.262,1.262,0,0,1,.94-.527Q.358-.039-.24.429A.244.244,0,0,0-.322.792,9.963,9.963,0,0,0,3.647,5.04c.2.117.418.208.62.317a.208.208,0,0,0,.306-.074c.32-.4.647-.8.972-1.2a1.288,1.288,0,0,1,1.609-.421q1.381.569,2.75,1.158a1.175,1.175,0,0,1,.707,1.461Q10.3,7.569,9.92,8.834a1.257,1.257,0,0,1-1.33.934H8.205" transform="translate(4.739 5.642)" fill="#fff"/>
</svg>
