<svg xmlns="http://www.w3.org/2000/svg" width="10.197" height="8.717" viewBox="0 0 10.197 8.717">
  <path id="Path_250" data-name="Path 250" d="M8.9,4.737c-.066-.048-.141-.025-.21-.025H.518a.655.655,0,0,1-.337-.058A.327.327,0,0,1,0,4.3a.3.3,0,0,1,.257-.291,2.469,2.469,0,0,1,.345-.025l8.067,0c.07,0,.172.037.2-.028.041-.085-.067-.13-.118-.181Q7.23,2.233,5.7.695C5.656.652,5.612.609,5.574.562a.313.313,0,0,1,0-.445A.35.35,0,0,1,6.034.064a1,1,0,0,1,.134.123L10,4.018c.263.263.261.413,0,.676L6.245,8.447c-.052.052-.1.106-.157.153a.333.333,0,0,1-.5.007A.327.327,0,0,1,5.6,8.1c.289-.3.589-.6.884-.9Q7.642,6.045,8.8,4.88c.04-.041.1-.071.106-.143" transform="translate(0 0)" fill="#fff"/>
</svg>
