<svg xmlns="http://www.w3.org/2000/svg" width="9.491" height="8.228" viewBox="0 0 9.491 8.228">
  <path id="Path_118" data-name="Path 118" d="M7.86,4.181c-.059-.043-.125-.022-.186-.022H.457a.578.578,0,0,1-.3-.051A.289.289,0,0,1,0,3.8a.264.264,0,0,1,.227-.256,2.179,2.179,0,0,1,.3-.022l7.12,0c.062,0,.152.033.179-.025.036-.075-.059-.115-.1-.16Q6.382,1.971,5.03.613C4.992.575,4.953.537,4.92.5a.277.277,0,0,1,0-.393A.309.309,0,0,1,5.326.056a.886.886,0,0,1,.119.108L8.827,3.547c.232.232.23.365,0,.6L5.512,7.455c-.046.046-.089.093-.138.135a.294.294,0,0,1-.443.006.289.289,0,0,1,.012-.443c.255-.268.519-.528.78-.791Q6.745,5.335,7.766,4.307c.036-.036.087-.063.093-.126" transform="translate(0.251 0.272)" fill="#fff" stroke="#fff" stroke-width="0.5"/>
</svg>
